<svg id="b2aaf79a-626f-42ee-a245-0a9889f5e713" data-name="Layer 1" xmlns="http://www.w3.org/2000/svg" viewBox="0 0 791.15 252.59"><defs><style>.a7ae8f4c-8b99-45ad-993a-98e5d54535e7{fill:#fff;}.b397453d-975e-4b6d-9b80-f2df2931fa6d{fill:#41e5ff;}</style></defs><path class="a7ae8f4c-8b99-45ad-993a-98e5d54535e7" d="M183.69,76a5.24,5.24,0,0,1-1.92,7.15l-37.32,21.54-6.06,3.5a5.23,5.23,0,0,1-7.85-4.53V13.36a5.23,5.23,0,0,1,5.23-5.23h3.44a5.24,5.24,0,0,1,5.24,5.23V79.5A5.24,5.24,0,0,0,152.3,84l22.51-13A5.25,5.25,0,0,1,182,73Z"/><path class="a7ae8f4c-8b99-45ad-993a-98e5d54535e7" d="M116.37,53.23v50.9a5.23,5.23,0,0,1-7.85,4.53l-6.09-3.51-72.76-42A5.23,5.23,0,0,1,27.76,56l1.73-3a5.22,5.22,0,0,1,7.14-1.91l58,33.46A5.23,5.23,0,0,0,102.43,80V53.23A5.25,5.25,0,0,1,107.67,48h3.47A5.24,5.24,0,0,1,116.37,53.23Z"/><path class="a7ae8f4c-8b99-45ad-993a-98e5d54535e7" d="M217.71,194.16l-1.72,3a5.23,5.23,0,0,1-7.15,1.91L152.3,166.42a5.24,5.24,0,0,0-7.85,4.54v27.3a5.24,5.24,0,0,1-5.24,5.23h-3.44a5.23,5.23,0,0,1-5.23-5.23V146.85a5.23,5.23,0,0,1,7.85-4.53l6.06,3.49L215.8,187A5.23,5.23,0,0,1,217.71,194.16Z"/><path class="a7ae8f4c-8b99-45ad-993a-98e5d54535e7" d="M116.37,146.15v92a5.23,5.23,0,0,1-5.23,5.23h-3.47a5.24,5.24,0,0,1-5.24-5.23V170.26a5.23,5.23,0,0,0-7.85-4.53l-23,13.32a5.23,5.23,0,0,1-7.15-1.92l-1.72-3A5.23,5.23,0,0,1,64.58,167l37.85-21.86,6.09-3.52A5.23,5.23,0,0,1,116.37,146.15Z"/><path class="b397453d-975e-4b6d-9b80-f2df2931fa6d" d="M172.73,129.69l22.92,13.23a5.24,5.24,0,0,1,1.92,7.15l-1.72,3A5.23,5.23,0,0,1,188.7,155L151,133.19l-5.2-3a5.2,5.2,0,0,1-1.92-1.92l-.43-.74a5.25,5.25,0,0,1,0-5.24h0a5.3,5.3,0,0,1,1.91-1.91l5.63-3.24,72.36-41.78a5.22,5.22,0,0,1,7.14,1.91l1.73,3a5.23,5.23,0,0,1-1.91,7.16l-57.56,33.22A5.24,5.24,0,0,0,172.73,129.69Z"/><path class="b397453d-975e-4b6d-9b80-f2df2931fa6d" d="M72.65,120.64,49.72,107.41a5.25,5.25,0,0,1-1.92-7.15l1.73-3a5.23,5.23,0,0,1,7.14-1.92l37.74,21.78,5.21,3a5.3,5.3,0,0,1,1.91,1.91l.43.74a5.25,5.25,0,0,1,0,5.24h0A5.3,5.3,0,0,1,100,130l-5.63,3.25L22.05,175a5.23,5.23,0,0,1-7.14-1.91l-1.73-3a5.22,5.22,0,0,1,1.91-7.15L72.65,129.7A5.23,5.23,0,0,0,72.65,120.64Z"/><path class="a7ae8f4c-8b99-45ad-993a-98e5d54535e7" d="M446,83.56,410.55,191.88H383.62l-23.83-73.35-24.6,73.35H308.41L272.82,83.56h26l24.45,76.14L348.8,83.56H372l24.76,76.75L422,83.56Z"/><path class="a7ae8f4c-8b99-45ad-993a-98e5d54535e7" d="M455.12,181.21l8.51-18.88c9.13,6.65,22.75,11.29,35.75,11.29,14.86,0,20.89-5,20.89-11.6,0-20.28-63-6.35-63-46.58,0-18.42,14.85-33.74,45.65-33.74,13.62,0,27.55,3.25,37.6,9.59l-7.73,19c-10.06-5.73-20.43-8.51-30-8.51-14.85,0-20.58,5.57-20.58,12.38,0,20,63,6.19,63,46,0,18.11-15,33.58-46,33.58C482.05,193.74,464.71,188.63,455.12,181.21Z"/><path class="a7ae8f4c-8b99-45ad-993a-98e5d54535e7" d="M558.18,150.26c0-25.08,19.35-42.87,45.81-42.87s45.65,17.79,45.65,42.87S630.45,193.12,604,193.12,558.18,175.33,558.18,150.26Zm67,0c0-14.4-9.13-23.06-21.2-23.06s-21.35,8.66-21.35,23.06,9.28,23.05,21.35,23.05S625.19,164.65,625.19,150.26Z"/><path class="a7ae8f4c-8b99-45ad-993a-98e5d54535e7" d="M664.35,137.72c0-32.65,25.07-56,58.8-56,18.73,0,34.36,6.81,44.57,19.19l-16.09,14.85c-7.28-8.35-16.41-12.69-27.24-12.69-20.27,0-34.66,14.24-34.66,34.67s14.39,34.66,34.66,34.66c10.83,0,20-4.33,27.24-12.84l16.09,14.86c-10.21,12.53-25.84,19.34-44.72,19.34C689.42,193.74,664.35,170.37,664.35,137.72Z"/></svg>